<svg width="286" height="456" viewBox="0 0 286 456" fill="none" xmlns="http://www.w3.org/2000/svg">
<rect x="29" y="23" width="229" height="192" rx="16" fill="#866CD2"/>
<path d="M110.776 196V187.273H116.555V188.794H112.621V190.874H116.171V192.395H112.621V196H110.776ZM117.656 196V189.455H119.416V190.597H119.484C119.604 190.19 119.804 189.884 120.085 189.676C120.366 189.466 120.69 189.361 121.057 189.361C121.148 189.361 121.246 189.366 121.351 189.378C121.456 189.389 121.548 189.405 121.628 189.425V191.036C121.542 191.01 121.425 190.987 121.274 190.967C121.123 190.947 120.986 190.938 120.861 190.938C120.594 190.938 120.355 190.996 120.145 191.112C119.937 191.226 119.773 191.385 119.65 191.589C119.531 191.794 119.471 192.03 119.471 192.297V196H117.656ZM124.245 196.124C123.828 196.124 123.455 196.051 123.129 195.906C122.802 195.759 122.544 195.541 122.353 195.254C122.166 194.964 122.072 194.604 122.072 194.172C122.072 193.808 122.139 193.503 122.272 193.256C122.406 193.009 122.588 192.81 122.818 192.659C123.048 192.509 123.309 192.395 123.602 192.318C123.897 192.241 124.207 192.188 124.531 192.156C124.911 192.116 125.218 192.08 125.451 192.045C125.684 192.009 125.853 191.955 125.958 191.884C126.063 191.812 126.116 191.707 126.116 191.568V191.543C126.116 191.273 126.031 191.064 125.86 190.916C125.693 190.768 125.454 190.695 125.144 190.695C124.818 190.695 124.558 190.767 124.365 190.912C124.171 191.054 124.044 191.233 123.981 191.449L122.302 191.312C122.387 190.915 122.555 190.571 122.805 190.281C123.055 189.989 123.377 189.764 123.772 189.608C124.17 189.449 124.63 189.369 125.153 189.369C125.517 189.369 125.865 189.412 126.197 189.497C126.532 189.582 126.829 189.714 127.088 189.893C127.349 190.072 127.555 190.303 127.705 190.584C127.856 190.862 127.931 191.196 127.931 191.585V196H126.21V195.092H126.159C126.053 195.297 125.913 195.477 125.737 195.634C125.561 195.787 125.349 195.908 125.102 195.996C124.855 196.081 124.569 196.124 124.245 196.124ZM124.765 194.871C125.032 194.871 125.268 194.818 125.472 194.713C125.677 194.605 125.838 194.46 125.954 194.278C126.07 194.097 126.129 193.891 126.129 193.661V192.966C126.072 193.003 125.994 193.037 125.894 193.068C125.798 193.097 125.688 193.124 125.566 193.149C125.444 193.172 125.322 193.193 125.2 193.213C125.078 193.23 124.967 193.246 124.867 193.26C124.654 193.291 124.468 193.341 124.309 193.409C124.15 193.477 124.026 193.57 123.938 193.686C123.85 193.8 123.806 193.942 123.806 194.112C123.806 194.359 123.896 194.548 124.075 194.679C124.257 194.807 124.487 194.871 124.765 194.871ZM129.34 196V189.455H131.07V190.609H131.146C131.283 190.226 131.51 189.923 131.828 189.702C132.146 189.48 132.527 189.369 132.97 189.369C133.419 189.369 133.801 189.482 134.117 189.706C134.432 189.928 134.642 190.229 134.747 190.609H134.816C134.949 190.234 135.191 189.935 135.54 189.71C135.892 189.483 136.308 189.369 136.789 189.369C137.399 189.369 137.895 189.564 138.276 189.953C138.659 190.339 138.851 190.888 138.851 191.598V196H137.04V191.956C137.04 191.592 136.943 191.32 136.75 191.138C136.557 190.956 136.316 190.865 136.026 190.865C135.696 190.865 135.439 190.97 135.254 191.18C135.07 191.388 134.977 191.662 134.977 192.003V196H133.218V191.918C133.218 191.597 133.125 191.341 132.941 191.151C132.759 190.96 132.519 190.865 132.22 190.865C132.019 190.865 131.837 190.916 131.675 191.018C131.516 191.118 131.389 191.259 131.296 191.44C131.202 191.619 131.155 191.83 131.155 192.071V196H129.34ZM143.268 196.128C142.595 196.128 142.015 195.991 141.529 195.719C141.046 195.443 140.674 195.054 140.413 194.551C140.151 194.045 140.021 193.447 140.021 192.757C140.021 192.084 140.151 191.493 140.413 190.984C140.674 190.476 141.042 190.08 141.517 189.795C141.994 189.511 142.553 189.369 143.195 189.369C143.627 189.369 144.029 189.439 144.401 189.578C144.776 189.714 145.103 189.92 145.382 190.196C145.663 190.472 145.882 190.818 146.038 191.236C146.194 191.651 146.272 192.136 146.272 192.693V193.192H140.745V192.067H144.563C144.563 191.805 144.507 191.574 144.393 191.372C144.279 191.17 144.122 191.013 143.92 190.899C143.721 190.783 143.49 190.724 143.225 190.724C142.95 190.724 142.705 190.788 142.492 190.916C142.282 191.041 142.117 191.21 141.998 191.423C141.879 191.634 141.818 191.868 141.815 192.126V193.196C141.815 193.52 141.874 193.8 141.994 194.036C142.116 194.271 142.288 194.453 142.509 194.581C142.731 194.709 142.994 194.773 143.298 194.773C143.499 194.773 143.684 194.744 143.852 194.688C144.019 194.631 144.163 194.545 144.282 194.432C144.401 194.318 144.492 194.179 144.555 194.014L146.234 194.125C146.149 194.528 145.974 194.881 145.71 195.182C145.448 195.48 145.11 195.713 144.695 195.881C144.284 196.045 143.808 196.128 143.268 196.128ZM148.701 196L146.92 189.455H148.757L149.771 193.852H149.83L150.887 189.455H152.69L153.764 193.827H153.819L154.816 189.455H156.649L154.872 196H152.95L151.825 191.884H151.744L150.619 196H148.701ZM160.41 196.128C159.748 196.128 159.176 195.987 158.693 195.706C158.213 195.422 157.842 195.027 157.581 194.521C157.319 194.013 157.189 193.423 157.189 192.753C157.189 192.077 157.319 191.486 157.581 190.98C157.842 190.472 158.213 190.077 158.693 189.795C159.176 189.511 159.748 189.369 160.41 189.369C161.072 189.369 161.643 189.511 162.123 189.795C162.606 190.077 162.979 190.472 163.24 190.98C163.501 191.486 163.632 192.077 163.632 192.753C163.632 193.423 163.501 194.013 163.24 194.521C162.979 195.027 162.606 195.422 162.123 195.706C161.643 195.987 161.072 196.128 160.41 196.128ZM160.419 194.722C160.72 194.722 160.971 194.636 161.173 194.466C161.375 194.293 161.527 194.057 161.629 193.759C161.734 193.46 161.787 193.121 161.787 192.74C161.787 192.359 161.734 192.02 161.629 191.722C161.527 191.423 161.375 191.187 161.173 191.014C160.971 190.841 160.72 190.754 160.419 190.754C160.115 190.754 159.859 190.841 159.652 191.014C159.447 191.187 159.292 191.423 159.187 191.722C159.085 192.02 159.034 192.359 159.034 192.74C159.034 193.121 159.085 193.46 159.187 193.759C159.292 194.057 159.447 194.293 159.652 194.466C159.859 194.636 160.115 194.722 160.419 194.722ZM164.812 196V189.455H166.572V190.597H166.64C166.76 190.19 166.96 189.884 167.241 189.676C167.523 189.466 167.846 189.361 168.213 189.361C168.304 189.361 168.402 189.366 168.507 189.378C168.612 189.389 168.704 189.405 168.784 189.425V191.036C168.699 191.01 168.581 190.987 168.43 190.967C168.28 190.947 168.142 190.938 168.017 190.938C167.75 190.938 167.511 190.996 167.301 191.112C167.094 191.226 166.929 191.385 166.807 191.589C166.687 191.794 166.628 192.03 166.628 192.297V196H164.812ZM171.367 194.116L171.372 191.939H171.636L173.732 189.455H175.816L172.999 192.744H172.569L171.367 194.116ZM169.722 196V187.273H171.538V196H169.722ZM173.813 196L171.887 193.149L173.097 191.866L175.94 196H173.813Z" fill="white"/>
<rect x="59" y="45" width="169" height="85" rx="16" fill="#193886"/>
<path fill-rule="evenodd" clip-rule="evenodd" d="M149 123H137V141.535C132.256 143.918 129 148.829 129 154.5C129 162.508 135.492 169 143.5 169C151.508 169 158 162.508 158 154.5C158 148.439 154.281 143.246 149 141.079V123Z" fill="#193886"/>
<path fill-rule="evenodd" clip-rule="evenodd" d="M108 123H96V141.535C91.2557 143.918 88 148.829 88 154.5C88 162.508 94.4919 169 102.5 169C110.508 169 117 162.508 117 154.5C117 148.439 113.281 143.246 108 141.079V123Z" fill="#193886"/>
<path fill-rule="evenodd" clip-rule="evenodd" d="M190 123H178V141.535C173.256 143.918 170 148.829 170 154.5C170 162.508 176.492 169 184.5 169C192.508 169 199 162.508 199 154.5C199 148.439 195.281 143.246 190 141.079V123Z" fill="#193886"/>
<path d="M94.5499 90.3929H92.5726L95.5854 81.6656H97.9632L100.972 90.3929H98.9945L96.8084 83.6599H96.7402L94.5499 90.3929ZM94.4263 86.9625H99.0968V88.4028H94.4263V86.9625ZM101.988 92.8474V83.8474H103.778V84.9468H103.859C103.938 84.7707 104.053 84.5917 104.204 84.4099C104.357 84.2252 104.556 84.0718 104.801 83.9497C105.048 83.8247 105.355 83.7622 105.721 83.7622C106.198 83.7622 106.639 83.8872 107.042 84.1372C107.445 84.3843 107.768 84.7579 108.009 85.2579C108.251 85.7551 108.372 86.3786 108.372 87.1286C108.372 87.8588 108.254 88.4752 108.018 88.9781C107.785 89.4781 107.467 89.8573 107.063 90.1159C106.663 90.3715 106.214 90.4994 105.717 90.4994C105.365 90.4994 105.065 90.4411 104.818 90.3247C104.573 90.2082 104.373 90.0619 104.217 89.8858C104.061 89.7068 103.941 89.5264 103.859 89.3446H103.803V92.8474H101.988ZM103.765 87.1201C103.765 87.5093 103.819 87.8488 103.927 88.1386C104.035 88.4284 104.191 88.6542 104.396 88.8161C104.6 88.9752 104.849 89.0548 105.142 89.0548C105.437 89.0548 105.687 88.9738 105.892 88.8119C106.096 88.6471 106.251 88.4198 106.356 88.1301C106.464 87.8375 106.518 87.5008 106.518 87.1201C106.518 86.7423 106.465 86.4099 106.36 86.123C106.255 85.836 106.1 85.6116 105.896 85.4497C105.691 85.2877 105.44 85.2068 105.142 85.2068C104.846 85.2068 104.596 85.2849 104.392 85.4411C104.19 85.5974 104.035 85.819 103.927 86.1059C103.819 86.3929 103.765 86.7309 103.765 87.1201ZM109.582 92.8474V83.8474H111.372V84.9468H111.453C111.532 84.7707 111.647 84.5917 111.798 84.4099C111.951 84.2252 112.15 84.0718 112.394 83.9497C112.642 83.8247 112.948 83.7622 113.315 83.7622C113.792 83.7622 114.232 83.8872 114.636 84.1372C115.039 84.3843 115.362 84.7579 115.603 85.2579C115.845 85.7551 115.965 86.3786 115.965 87.1286C115.965 87.8588 115.847 88.4752 115.612 88.9781C115.379 89.4781 115.061 89.8573 114.657 90.1159C114.257 90.3715 113.808 90.4994 113.311 90.4994C112.958 90.4994 112.659 90.4411 112.411 90.3247C112.167 90.2082 111.967 90.0619 111.811 89.8858C111.654 89.7068 111.535 89.5264 111.453 89.3446H111.397V92.8474H109.582ZM111.359 87.1201C111.359 87.5093 111.413 87.8488 111.521 88.1386C111.629 88.4284 111.785 88.6542 111.99 88.8161C112.194 88.9752 112.443 89.0548 112.735 89.0548C113.031 89.0548 113.281 88.9738 113.485 88.8119C113.69 88.6471 113.845 88.4198 113.95 88.1301C114.058 87.8375 114.112 87.5008 114.112 87.1201C114.112 86.7423 114.059 86.4099 113.954 86.123C113.849 85.836 113.694 85.6116 113.49 85.4497C113.285 85.2877 113.034 85.2068 112.735 85.2068C112.44 85.2068 112.19 85.2849 111.985 85.4411C111.784 85.5974 111.629 85.819 111.521 86.1059C111.413 86.3929 111.359 86.7309 111.359 87.1201ZM118.991 81.6656V90.3929H117.176V81.6656H118.991ZM120.445 90.3929V83.8474H122.26V90.3929H120.445ZM121.357 83.0036C121.087 83.0036 120.856 82.9142 120.662 82.7352C120.472 82.5534 120.377 82.336 120.377 82.0832C120.377 81.8332 120.472 81.6187 120.662 81.4397C120.856 81.2579 121.087 81.167 121.357 81.167C121.627 81.167 121.857 81.2579 122.047 81.4397C122.241 81.6187 122.337 81.8332 122.337 82.0832C122.337 82.336 122.241 82.5534 122.047 82.7352C121.857 82.9142 121.627 83.0036 121.357 83.0036ZM126.672 90.5207C126.002 90.5207 125.425 90.3786 124.942 90.0946C124.462 89.8076 124.093 89.4099 123.834 88.9014C123.578 88.3929 123.45 87.8076 123.45 87.1457C123.45 86.4752 123.58 85.8872 123.838 85.3815C124.1 84.873 124.47 84.4767 124.95 84.1926C125.431 83.9056 126.002 83.7622 126.664 83.7622C127.235 83.7622 127.735 83.8659 128.164 84.0733C128.593 84.2806 128.932 84.5718 129.182 84.9468C129.432 85.3218 129.57 85.7622 129.595 86.2679H127.882C127.834 85.9411 127.706 85.6784 127.499 85.4795C127.294 85.2778 127.026 85.1769 126.693 85.1769C126.412 85.1769 126.166 85.2536 125.956 85.4071C125.749 85.5576 125.587 85.7778 125.47 86.0676C125.354 86.3573 125.296 86.7082 125.296 87.1201C125.296 87.5377 125.352 87.8929 125.466 88.1855C125.583 88.4781 125.746 88.7011 125.956 88.8545C126.166 89.0079 126.412 89.0846 126.693 89.0846C126.901 89.0846 127.087 89.042 127.252 88.9568C127.419 88.8715 127.557 88.748 127.665 88.586C127.776 88.4213 127.848 88.2238 127.882 87.9937H129.595C129.567 88.4937 129.431 88.934 129.186 89.3147C128.945 89.6926 128.611 89.988 128.185 90.2011C127.759 90.4142 127.254 90.5207 126.672 90.5207ZM132.624 90.5164C132.206 90.5164 131.834 90.444 131.508 90.2991C131.181 90.1514 130.922 89.934 130.732 89.6471C130.545 89.3573 130.451 88.9965 130.451 88.5647C130.451 88.2011 130.518 87.8957 130.651 87.6485C130.785 87.4014 130.966 87.2025 131.197 87.0519C131.427 86.9014 131.688 86.7877 131.981 86.711C132.276 86.6343 132.586 86.5804 132.91 86.5491C133.29 86.5093 133.597 86.4724 133.83 86.4383C134.063 86.4014 134.232 86.3474 134.337 86.2764C134.442 86.2054 134.495 86.1002 134.495 85.961V85.9355C134.495 85.6656 134.41 85.4568 134.239 85.309C134.072 85.1613 133.833 85.0875 133.523 85.0875C133.197 85.0875 132.937 85.1599 132.743 85.3048C132.55 85.4468 132.422 85.6258 132.36 85.8417L130.681 85.7054C130.766 85.3076 130.934 84.9639 131.184 84.6741C131.434 84.3815 131.756 84.1571 132.151 84.0008C132.549 83.8417 133.009 83.7622 133.532 83.7622C133.895 83.7622 134.243 83.8048 134.576 83.89C134.911 83.9752 135.208 84.1073 135.466 84.2863C135.728 84.4653 135.934 84.6954 136.084 84.9767C136.235 85.2551 136.31 85.5889 136.31 85.9781V90.3929H134.589V89.4852H134.537C134.432 89.6897 134.292 89.8701 134.116 90.0264C133.939 90.1798 133.728 90.3005 133.481 90.3886C133.233 90.4738 132.948 90.5164 132.624 90.5164ZM133.144 89.2636C133.411 89.2636 133.647 89.211 133.851 89.1059C134.056 88.998 134.216 88.8531 134.333 88.6713C134.449 88.4894 134.508 88.2835 134.508 88.0534V87.3588C134.451 87.3957 134.373 87.4298 134.273 87.461C134.177 87.4894 134.067 87.5164 133.945 87.542C133.823 87.5647 133.701 87.586 133.579 87.6059C133.456 87.623 133.346 87.6386 133.246 87.6528C133.033 87.684 132.847 87.7338 132.688 87.8019C132.529 87.8701 132.405 87.9625 132.317 88.0789C132.229 88.1926 132.185 88.3346 132.185 88.5051C132.185 88.7522 132.275 88.9411 132.454 89.0718C132.635 89.1997 132.866 89.2636 133.144 89.2636ZM141.2 83.8474V85.211H137.258V83.8474H141.2ZM138.153 82.2792H139.969V88.3815C139.969 88.5491 139.994 88.6798 140.045 88.7735C140.096 88.8644 140.167 88.9284 140.258 88.9653C140.352 89.0022 140.46 89.0207 140.582 89.0207C140.667 89.0207 140.753 89.0136 140.838 88.9994C140.923 88.9823 140.988 88.9696 141.034 88.961L141.319 90.3119C141.229 90.3403 141.101 90.373 140.936 90.4099C140.771 90.4497 140.571 90.4738 140.335 90.4823C139.898 90.4994 139.514 90.4411 139.184 90.3076C138.858 90.1741 138.604 89.9667 138.422 89.6855C138.24 89.4042 138.15 89.0491 138.153 88.6201V82.2792ZM142.383 90.3929V83.8474H144.198V90.3929H142.383ZM143.295 83.0036C143.025 83.0036 142.793 82.9142 142.6 82.7352C142.41 82.5534 142.314 82.336 142.314 82.0832C142.314 81.8332 142.41 81.6187 142.6 81.4397C142.793 81.2579 143.025 81.167 143.295 81.167C143.564 81.167 143.795 81.2579 143.985 81.4397C144.178 81.6187 144.275 81.8332 144.275 82.0832C144.275 82.336 144.178 82.5534 143.985 82.7352C143.795 82.9142 143.564 83.0036 143.295 83.0036ZM148.61 90.5207C147.948 90.5207 147.375 90.3801 146.892 90.0988C146.412 89.8147 146.041 89.4198 145.78 88.9142C145.519 88.4056 145.388 87.8161 145.388 87.1457C145.388 86.4696 145.519 85.8786 145.78 85.373C146.041 84.8644 146.412 84.4696 146.892 84.1883C147.375 83.9042 147.948 83.7622 148.61 83.7622C149.271 83.7622 149.843 83.9042 150.323 84.1883C150.806 84.4696 151.178 84.8644 151.439 85.373C151.7 85.8786 151.831 86.4696 151.831 87.1457C151.831 87.8161 151.7 88.4056 151.439 88.9142C151.178 89.4198 150.806 89.8147 150.323 90.0988C149.843 90.3801 149.271 90.5207 148.61 90.5207ZM148.618 89.1144C148.919 89.1144 149.171 89.0292 149.372 88.8588C149.574 88.6855 149.726 88.4497 149.828 88.1514C149.933 87.8531 149.986 87.5136 149.986 87.1329C149.986 86.7522 149.933 86.4127 149.828 86.1144C149.726 85.8161 149.574 85.5804 149.372 85.4071C149.171 85.2338 148.919 85.1471 148.618 85.1471C148.314 85.1471 148.058 85.2338 147.851 85.4071C147.646 85.5804 147.492 85.8161 147.387 86.1144C147.284 86.4127 147.233 86.7522 147.233 87.1329C147.233 87.5136 147.284 87.8531 147.387 88.1514C147.492 88.4497 147.646 88.6855 147.851 88.8588C148.058 89.0292 148.314 89.1144 148.618 89.1144ZM154.827 86.6088V90.3929H153.012V83.8474H154.742V85.0022H154.818C154.963 84.6215 155.206 84.3204 155.547 84.0988C155.888 83.8744 156.301 83.7622 156.787 83.7622C157.242 83.7622 157.638 83.8616 157.976 84.0605C158.314 84.2593 158.577 84.5434 158.764 84.9127C158.952 85.2792 159.046 85.7167 159.046 86.2252V90.3929H157.23V86.5491C157.233 86.1485 157.131 85.836 156.923 85.6116C156.716 85.3843 156.431 85.2707 156.067 85.2707C155.823 85.2707 155.607 85.3233 155.419 85.4284C155.235 85.5335 155.09 85.6869 154.985 85.8886C154.882 86.0875 154.83 86.3275 154.827 86.6088ZM170.988 84.721H169.122C169.088 84.4795 169.018 84.265 168.913 84.0775C168.808 83.8872 168.673 83.7252 168.508 83.5917C168.343 83.4582 168.153 83.3559 167.937 83.2849C167.724 83.2139 167.492 83.1784 167.242 83.1784C166.791 83.1784 166.397 83.2906 166.062 83.515C165.727 83.7366 165.467 84.0605 165.282 84.4866C165.097 84.9099 165.005 85.4241 165.005 86.0292C165.005 86.6514 165.097 87.1741 165.282 87.5974C165.47 88.0207 165.731 88.3403 166.066 88.5562C166.401 88.7721 166.789 88.8801 167.23 88.8801C167.477 88.8801 167.705 88.8474 167.916 88.7821C168.129 88.7167 168.318 88.6215 168.482 88.4965C168.647 88.3687 168.784 88.2139 168.892 88.0321C169.002 87.8502 169.079 87.6429 169.122 87.4099L170.988 87.4184C170.94 87.819 170.819 88.2054 170.626 88.5775C170.436 88.9468 170.178 89.2778 169.855 89.5704C169.534 89.8602 169.15 90.0903 168.704 90.2608C168.261 90.4284 167.759 90.5122 167.2 90.5122C166.421 90.5122 165.725 90.336 165.112 89.9838C164.501 89.6315 164.018 89.1215 163.663 88.4539C163.311 87.7863 163.134 86.9781 163.134 86.0292C163.134 85.0775 163.313 84.2679 163.671 83.6002C164.029 82.9326 164.515 82.4241 165.129 82.0747C165.742 81.7224 166.433 81.5463 167.2 81.5463C167.705 81.5463 168.174 81.6173 168.606 81.7593C169.041 81.9014 169.426 82.1088 169.761 82.3815C170.096 82.6514 170.369 82.9823 170.579 83.3744C170.792 83.7664 170.928 84.2153 170.988 84.721ZM175.235 90.5207C174.573 90.5207 174 90.3801 173.517 90.0988C173.037 89.8147 172.666 89.4198 172.405 88.9142C172.144 88.4056 172.013 87.8161 172.013 87.1457C172.013 86.4696 172.144 85.8786 172.405 85.373C172.666 84.8644 173.037 84.4696 173.517 84.1883C174 83.9042 174.573 83.7622 175.235 83.7622C175.896 83.7622 176.468 83.9042 176.948 84.1883C177.431 84.4696 177.803 84.8644 178.064 85.373C178.325 85.8786 178.456 86.4696 178.456 87.1457C178.456 87.8161 178.325 88.4056 178.064 88.9142C177.803 89.4198 177.431 89.8147 176.948 90.0988C176.468 90.3801 175.896 90.5207 175.235 90.5207ZM175.243 89.1144C175.544 89.1144 175.796 89.0292 175.997 88.8588C176.199 88.6855 176.351 88.4497 176.453 88.1514C176.558 87.8531 176.611 87.5136 176.611 87.1329C176.611 86.7522 176.558 86.4127 176.453 86.1144C176.351 85.8161 176.199 85.5804 175.997 85.4071C175.796 85.2338 175.544 85.1471 175.243 85.1471C174.939 85.1471 174.683 85.2338 174.476 85.4071C174.271 85.5804 174.117 85.8161 174.012 86.1144C173.909 86.4127 173.858 86.7522 173.858 87.1329C173.858 87.5136 173.909 87.8531 174.012 88.1514C174.117 88.4497 174.271 88.6855 174.476 88.8588C174.683 89.0292 174.939 89.1144 175.243 89.1144ZM182.048 90.4994C181.551 90.4994 181.101 90.3715 180.698 90.1159C180.297 89.8573 179.979 89.4781 179.743 88.9781C179.51 88.4752 179.394 87.8588 179.394 87.1286C179.394 86.3786 179.514 85.7551 179.756 85.2579C179.997 84.7579 180.318 84.3843 180.719 84.1372C181.122 83.8872 181.564 83.7622 182.044 83.7622C182.411 83.7622 182.716 83.8247 182.96 83.9497C183.208 84.0718 183.406 84.2252 183.557 84.4099C183.71 84.5917 183.827 84.7707 183.906 84.9468H183.962V81.6656H185.773V90.3929H183.983V89.3446H183.906C183.821 89.5264 183.7 89.7068 183.544 89.8858C183.391 90.0619 183.191 90.2082 182.943 90.3247C182.699 90.4411 182.401 90.4994 182.048 90.4994ZM182.624 89.0548C182.916 89.0548 183.164 88.9752 183.365 88.8161C183.57 88.6542 183.726 88.4284 183.834 88.1386C183.945 87.8488 184 87.5093 184 87.1201C184 86.7309 183.946 86.3929 183.838 86.1059C183.73 85.819 183.574 85.5974 183.369 85.4411C183.165 85.2849 182.916 85.2068 182.624 85.2068C182.325 85.2068 182.074 85.2877 181.869 85.4497C181.665 85.6116 181.51 85.836 181.405 86.123C181.3 86.4099 181.247 86.7423 181.247 87.1201C181.247 87.5008 181.3 87.8375 181.405 88.1301C181.513 88.4198 181.668 88.6471 181.869 88.8119C182.074 88.9738 182.325 89.0548 182.624 89.0548ZM190.248 90.5207C189.575 90.5207 188.996 90.3843 188.51 90.1116C188.027 89.836 187.655 89.4468 187.393 88.944C187.132 88.4383 187.001 87.8403 187.001 87.15C187.001 86.4767 187.132 85.8858 187.393 85.3772C187.655 84.8687 188.023 84.4724 188.497 84.1883C188.974 83.9042 189.534 83.7622 190.176 83.7622C190.608 83.7622 191.01 83.8318 191.382 83.971C191.757 84.1073 192.084 84.3133 192.362 84.5889C192.643 84.8644 192.862 85.211 193.018 85.6286C193.175 86.0434 193.253 86.5292 193.253 87.086V87.5846H187.726V86.4596H191.544C191.544 86.1983 191.487 85.9667 191.373 85.765C191.26 85.5633 191.102 85.4056 190.9 85.292C190.702 85.1755 190.47 85.1173 190.206 85.1173C189.93 85.1173 189.686 85.1812 189.473 85.309C189.263 85.434 189.098 85.6031 188.979 85.8161C188.859 86.0264 188.798 86.2608 188.795 86.5193V87.5889C188.795 87.9127 188.855 88.1926 188.974 88.4284C189.096 88.6642 189.268 88.846 189.49 88.9738C189.711 89.1017 189.974 89.1656 190.278 89.1656C190.48 89.1656 190.665 89.1372 190.832 89.0804C191 89.0235 191.143 88.9383 191.263 88.8247C191.382 88.711 191.473 88.5718 191.535 88.4071L193.214 88.5179C193.129 88.9213 192.954 89.2735 192.69 89.5747C192.429 89.873 192.091 90.1059 191.676 90.2735C191.264 90.4383 190.788 90.5207 190.248 90.5207Z" fill="white"/>
<rect x="59" y="315" width="169" height="112" rx="16" fill="#193886"/>
<path d="M94.5499 381H92.5726L95.5854 372.273H97.9632L100.972 381H98.9945L96.8084 374.267H96.7402L94.5499 381ZM94.4263 377.57H99.0968V379.01H94.4263V377.57ZM101.988 383.455V374.455H103.778V375.554H103.859C103.938 375.378 104.053 375.199 104.204 375.017C104.357 374.832 104.556 374.679 104.801 374.557C105.048 374.432 105.355 374.369 105.721 374.369C106.198 374.369 106.639 374.494 107.042 374.744C107.445 374.991 107.768 375.365 108.009 375.865C108.251 376.362 108.372 376.986 108.372 377.736C108.372 378.466 108.254 379.082 108.018 379.585C107.785 380.085 107.467 380.464 107.063 380.723C106.663 380.979 106.214 381.107 105.717 381.107C105.365 381.107 105.065 381.048 104.818 380.932C104.573 380.815 104.373 380.669 104.217 380.493C104.061 380.314 103.941 380.134 103.859 379.952H103.803V383.455H101.988ZM103.765 377.727C103.765 378.116 103.819 378.456 103.927 378.746C104.035 379.036 104.191 379.261 104.396 379.423C104.6 379.582 104.849 379.662 105.142 379.662C105.437 379.662 105.687 379.581 105.892 379.419C106.096 379.254 106.251 379.027 106.356 378.737C106.464 378.445 106.518 378.108 106.518 377.727C106.518 377.349 106.465 377.017 106.36 376.73C106.255 376.443 106.1 376.219 105.896 376.057C105.691 375.895 105.44 375.814 105.142 375.814C104.846 375.814 104.596 375.892 104.392 376.048C104.19 376.205 104.035 376.426 103.927 376.713C103.819 377 103.765 377.338 103.765 377.727ZM109.582 383.455V374.455H111.372V375.554H111.453C111.532 375.378 111.647 375.199 111.798 375.017C111.951 374.832 112.15 374.679 112.394 374.557C112.642 374.432 112.948 374.369 113.315 374.369C113.792 374.369 114.232 374.494 114.636 374.744C115.039 374.991 115.362 375.365 115.603 375.865C115.845 376.362 115.965 376.986 115.965 377.736C115.965 378.466 115.847 379.082 115.612 379.585C115.379 380.085 115.061 380.464 114.657 380.723C114.257 380.979 113.808 381.107 113.311 381.107C112.958 381.107 112.659 381.048 112.411 380.932C112.167 380.815 111.967 380.669 111.811 380.493C111.654 380.314 111.535 380.134 111.453 379.952H111.397V383.455H109.582ZM111.359 377.727C111.359 378.116 111.413 378.456 111.521 378.746C111.629 379.036 111.785 379.261 111.99 379.423C112.194 379.582 112.443 379.662 112.735 379.662C113.031 379.662 113.281 379.581 113.485 379.419C113.69 379.254 113.845 379.027 113.95 378.737C114.058 378.445 114.112 378.108 114.112 377.727C114.112 377.349 114.059 377.017 113.954 376.73C113.849 376.443 113.694 376.219 113.49 376.057C113.285 375.895 113.034 375.814 112.735 375.814C112.44 375.814 112.19 375.892 111.985 376.048C111.784 376.205 111.629 376.426 111.521 376.713C111.413 377 111.359 377.338 111.359 377.727ZM118.991 372.273V381H117.176V372.273H118.991ZM120.445 381V374.455H122.26V381H120.445ZM121.357 373.611C121.087 373.611 120.856 373.521 120.662 373.342C120.472 373.161 120.377 372.943 120.377 372.69C120.377 372.44 120.472 372.226 120.662 372.047C120.856 371.865 121.087 371.774 121.357 371.774C121.627 371.774 121.857 371.865 122.047 372.047C122.241 372.226 122.337 372.44 122.337 372.69C122.337 372.943 122.241 373.161 122.047 373.342C121.857 373.521 121.627 373.611 121.357 373.611ZM126.672 381.128C126.002 381.128 125.425 380.986 124.942 380.702C124.462 380.415 124.093 380.017 123.834 379.509C123.578 379 123.45 378.415 123.45 377.753C123.45 377.082 123.58 376.494 123.838 375.989C124.1 375.48 124.47 375.084 124.95 374.8C125.431 374.513 126.002 374.369 126.664 374.369C127.235 374.369 127.735 374.473 128.164 374.68C128.593 374.888 128.932 375.179 129.182 375.554C129.432 375.929 129.57 376.369 129.595 376.875H127.882C127.834 376.548 127.706 376.286 127.499 376.087C127.294 375.885 127.026 375.784 126.693 375.784C126.412 375.784 126.166 375.861 125.956 376.014C125.749 376.165 125.587 376.385 125.47 376.675C125.354 376.964 125.296 377.315 125.296 377.727C125.296 378.145 125.352 378.5 125.466 378.793C125.583 379.085 125.746 379.308 125.956 379.462C126.166 379.615 126.412 379.692 126.693 379.692C126.901 379.692 127.087 379.649 127.252 379.564C127.419 379.479 127.557 379.355 127.665 379.193C127.776 379.028 127.848 378.831 127.882 378.601H129.595C129.567 379.101 129.431 379.541 129.186 379.922C128.945 380.3 128.611 380.595 128.185 380.808C127.759 381.021 127.254 381.128 126.672 381.128ZM132.624 381.124C132.206 381.124 131.834 381.051 131.508 380.906C131.181 380.759 130.922 380.541 130.732 380.254C130.545 379.964 130.451 379.604 130.451 379.172C130.451 378.808 130.518 378.503 130.651 378.256C130.785 378.009 130.966 377.81 131.197 377.659C131.427 377.509 131.688 377.395 131.981 377.318C132.276 377.241 132.586 377.188 132.91 377.156C133.29 377.116 133.597 377.08 133.83 377.045C134.063 377.009 134.232 376.955 134.337 376.884C134.442 376.812 134.495 376.707 134.495 376.568V376.543C134.495 376.273 134.41 376.064 134.239 375.916C134.072 375.768 133.833 375.695 133.523 375.695C133.197 375.695 132.937 375.767 132.743 375.912C132.55 376.054 132.422 376.233 132.36 376.449L130.681 376.312C130.766 375.915 130.934 375.571 131.184 375.281C131.434 374.989 131.756 374.764 132.151 374.608C132.549 374.449 133.009 374.369 133.532 374.369C133.895 374.369 134.243 374.412 134.576 374.497C134.911 374.582 135.208 374.714 135.466 374.893C135.728 375.072 135.934 375.303 136.084 375.584C136.235 375.862 136.31 376.196 136.31 376.585V381H134.589V380.092H134.537C134.432 380.297 134.292 380.477 134.116 380.634C133.939 380.787 133.728 380.908 133.481 380.996C133.233 381.081 132.948 381.124 132.624 381.124ZM133.144 379.871C133.411 379.871 133.647 379.818 133.851 379.713C134.056 379.605 134.216 379.46 134.333 379.278C134.449 379.097 134.508 378.891 134.508 378.661V377.966C134.451 378.003 134.373 378.037 134.273 378.068C134.177 378.097 134.067 378.124 133.945 378.149C133.823 378.172 133.701 378.193 133.579 378.213C133.456 378.23 133.346 378.246 133.246 378.26C133.033 378.291 132.847 378.341 132.688 378.409C132.529 378.477 132.405 378.57 132.317 378.686C132.229 378.8 132.185 378.942 132.185 379.112C132.185 379.359 132.275 379.548 132.454 379.679C132.635 379.807 132.866 379.871 133.144 379.871ZM141.2 374.455V375.818H137.258V374.455H141.2ZM138.153 372.886H139.969V378.989C139.969 379.156 139.994 379.287 140.045 379.381C140.096 379.472 140.167 379.536 140.258 379.572C140.352 379.609 140.46 379.628 140.582 379.628C140.667 379.628 140.753 379.621 140.838 379.607C140.923 379.589 140.988 379.577 141.034 379.568L141.319 380.919C141.229 380.947 141.101 380.98 140.936 381.017C140.771 381.057 140.571 381.081 140.335 381.089C139.898 381.107 139.514 381.048 139.184 380.915C138.858 380.781 138.604 380.574 138.422 380.293C138.24 380.011 138.15 379.656 138.153 379.227V372.886ZM142.383 381V374.455H144.198V381H142.383ZM143.295 373.611C143.025 373.611 142.793 373.521 142.6 373.342C142.41 373.161 142.314 372.943 142.314 372.69C142.314 372.44 142.41 372.226 142.6 372.047C142.793 371.865 143.025 371.774 143.295 371.774C143.564 371.774 143.795 371.865 143.985 372.047C144.178 372.226 144.275 372.44 144.275 372.69C144.275 372.943 144.178 373.161 143.985 373.342C143.795 373.521 143.564 373.611 143.295 373.611ZM148.61 381.128C147.948 381.128 147.375 380.987 146.892 380.706C146.412 380.422 146.041 380.027 145.78 379.521C145.519 379.013 145.388 378.423 145.388 377.753C145.388 377.077 145.519 376.486 145.78 375.98C146.041 375.472 146.412 375.077 146.892 374.795C147.375 374.511 147.948 374.369 148.61 374.369C149.271 374.369 149.843 374.511 150.323 374.795C150.806 375.077 151.178 375.472 151.439 375.98C151.7 376.486 151.831 377.077 151.831 377.753C151.831 378.423 151.7 379.013 151.439 379.521C151.178 380.027 150.806 380.422 150.323 380.706C149.843 380.987 149.271 381.128 148.61 381.128ZM148.618 379.722C148.919 379.722 149.171 379.636 149.372 379.466C149.574 379.293 149.726 379.057 149.828 378.759C149.933 378.46 149.986 378.121 149.986 377.74C149.986 377.359 149.933 377.02 149.828 376.722C149.726 376.423 149.574 376.187 149.372 376.014C149.171 375.841 148.919 375.754 148.618 375.754C148.314 375.754 148.058 375.841 147.851 376.014C147.646 376.187 147.492 376.423 147.387 376.722C147.284 377.02 147.233 377.359 147.233 377.74C147.233 378.121 147.284 378.46 147.387 378.759C147.492 379.057 147.646 379.293 147.851 379.466C148.058 379.636 148.314 379.722 148.618 379.722ZM154.827 377.216V381H153.012V374.455H154.742V375.609H154.818C154.963 375.229 155.206 374.928 155.547 374.706C155.888 374.482 156.301 374.369 156.787 374.369C157.242 374.369 157.638 374.469 157.976 374.668C158.314 374.866 158.577 375.151 158.764 375.52C158.952 375.886 159.046 376.324 159.046 376.832V381H157.23V377.156C157.233 376.756 157.131 376.443 156.923 376.219C156.716 375.991 156.431 375.878 156.067 375.878C155.823 375.878 155.607 375.93 155.419 376.036C155.235 376.141 155.09 376.294 154.985 376.496C154.882 376.695 154.83 376.935 154.827 377.216ZM170.988 375.328H169.122C169.088 375.087 169.018 374.872 168.913 374.685C168.808 374.494 168.673 374.332 168.508 374.199C168.343 374.065 168.153 373.963 167.937 373.892C167.724 373.821 167.492 373.786 167.242 373.786C166.791 373.786 166.397 373.898 166.062 374.122C165.727 374.344 165.467 374.668 165.282 375.094C165.097 375.517 165.005 376.031 165.005 376.636C165.005 377.259 165.097 377.781 165.282 378.205C165.47 378.628 165.731 378.947 166.066 379.163C166.401 379.379 166.789 379.487 167.23 379.487C167.477 379.487 167.705 379.455 167.916 379.389C168.129 379.324 168.318 379.229 168.482 379.104C168.647 378.976 168.784 378.821 168.892 378.639C169.002 378.457 169.079 378.25 169.122 378.017L170.988 378.026C170.94 378.426 170.819 378.812 170.626 379.185C170.436 379.554 170.178 379.885 169.855 380.178C169.534 380.467 169.15 380.697 168.704 380.868C168.261 381.036 167.759 381.119 167.2 381.119C166.421 381.119 165.725 380.943 165.112 380.591C164.501 380.239 164.018 379.729 163.663 379.061C163.311 378.393 163.134 377.585 163.134 376.636C163.134 375.685 163.313 374.875 163.671 374.207C164.029 373.54 164.515 373.031 165.129 372.682C165.742 372.33 166.433 372.153 167.2 372.153C167.705 372.153 168.174 372.224 168.606 372.366C169.041 372.509 169.426 372.716 169.761 372.989C170.096 373.259 170.369 373.589 170.579 373.982C170.792 374.374 170.928 374.822 170.988 375.328ZM175.235 381.128C174.573 381.128 174 380.987 173.517 380.706C173.037 380.422 172.666 380.027 172.405 379.521C172.144 379.013 172.013 378.423 172.013 377.753C172.013 377.077 172.144 376.486 172.405 375.98C172.666 375.472 173.037 375.077 173.517 374.795C174 374.511 174.573 374.369 175.235 374.369C175.896 374.369 176.468 374.511 176.948 374.795C177.431 375.077 177.803 375.472 178.064 375.98C178.325 376.486 178.456 377.077 178.456 377.753C178.456 378.423 178.325 379.013 178.064 379.521C177.803 380.027 177.431 380.422 176.948 380.706C176.468 380.987 175.896 381.128 175.235 381.128ZM175.243 379.722C175.544 379.722 175.796 379.636 175.997 379.466C176.199 379.293 176.351 379.057 176.453 378.759C176.558 378.46 176.611 378.121 176.611 377.74C176.611 377.359 176.558 377.02 176.453 376.722C176.351 376.423 176.199 376.187 175.997 376.014C175.796 375.841 175.544 375.754 175.243 375.754C174.939 375.754 174.683 375.841 174.476 376.014C174.271 376.187 174.117 376.423 174.012 376.722C173.909 377.02 173.858 377.359 173.858 377.74C173.858 378.121 173.909 378.46 174.012 378.759C174.117 379.057 174.271 379.293 174.476 379.466C174.683 379.636 174.939 379.722 175.243 379.722ZM182.048 381.107C181.551 381.107 181.101 380.979 180.698 380.723C180.297 380.464 179.979 380.085 179.743 379.585C179.51 379.082 179.394 378.466 179.394 377.736C179.394 376.986 179.514 376.362 179.756 375.865C179.997 375.365 180.318 374.991 180.719 374.744C181.122 374.494 181.564 374.369 182.044 374.369C182.411 374.369 182.716 374.432 182.96 374.557C183.208 374.679 183.406 374.832 183.557 375.017C183.71 375.199 183.827 375.378 183.906 375.554H183.962V372.273H185.773V381H183.983V379.952H183.906C183.821 380.134 183.7 380.314 183.544 380.493C183.391 380.669 183.191 380.815 182.943 380.932C182.699 381.048 182.401 381.107 182.048 381.107ZM182.624 379.662C182.916 379.662 183.164 379.582 183.365 379.423C183.57 379.261 183.726 379.036 183.834 378.746C183.945 378.456 184 378.116 184 377.727C184 377.338 183.946 377 183.838 376.713C183.73 376.426 183.574 376.205 183.369 376.048C183.165 375.892 182.916 375.814 182.624 375.814C182.325 375.814 182.074 375.895 181.869 376.057C181.665 376.219 181.51 376.443 181.405 376.73C181.3 377.017 181.247 377.349 181.247 377.727C181.247 378.108 181.3 378.445 181.405 378.737C181.513 379.027 181.668 379.254 181.869 379.419C182.074 379.581 182.325 379.662 182.624 379.662ZM190.248 381.128C189.575 381.128 188.996 380.991 188.51 380.719C188.027 380.443 187.655 380.054 187.393 379.551C187.132 379.045 187.001 378.447 187.001 377.757C187.001 377.084 187.132 376.493 187.393 375.984C187.655 375.476 188.023 375.08 188.497 374.795C188.974 374.511 189.534 374.369 190.176 374.369C190.608 374.369 191.01 374.439 191.382 374.578C191.757 374.714 192.084 374.92 192.362 375.196C192.643 375.472 192.862 375.818 193.018 376.236C193.175 376.651 193.253 377.136 193.253 377.693V378.192H187.726V377.067H191.544C191.544 376.805 191.487 376.574 191.373 376.372C191.26 376.17 191.102 376.013 190.9 375.899C190.702 375.783 190.47 375.724 190.206 375.724C189.93 375.724 189.686 375.788 189.473 375.916C189.263 376.041 189.098 376.21 188.979 376.423C188.859 376.634 188.798 376.868 188.795 377.126V378.196C188.795 378.52 188.855 378.8 188.974 379.036C189.096 379.271 189.268 379.453 189.49 379.581C189.711 379.709 189.974 379.773 190.278 379.773C190.48 379.773 190.665 379.744 190.832 379.688C191 379.631 191.143 379.545 191.263 379.432C191.382 379.318 191.473 379.179 191.535 379.014L193.214 379.125C193.129 379.528 192.954 379.881 192.69 380.182C192.429 380.48 192.091 380.713 191.676 380.881C191.264 381.045 190.788 381.128 190.248 381.128Z" fill="white"/>
<path fill-rule="evenodd" clip-rule="evenodd" d="M165.467 303H154.25V320.326C149.815 322.554 146.772 327.144 146.772 332.446C146.772 339.932 152.84 346 160.326 346C167.812 346 173.88 339.932 173.88 332.446C173.88 326.78 170.404 321.926 165.467 319.9V303ZM131.815 303H120.598V320.326C116.163 322.554 113.12 327.144 113.12 332.446C113.12 339.932 119.188 346 126.674 346C134.16 346 140.228 339.932 140.228 332.446C140.228 326.78 136.752 321.926 131.815 319.9V303Z" fill="#86B2DA"/>
<rect x="88" y="258" width="110" height="51" rx="10" fill="#86B2DA"/>
<path d="M122.993 287V278.273H124.838V285.479H128.58V287H122.993ZM129.767 287V280.455H131.583V287H129.767ZM130.679 279.611C130.409 279.611 130.178 279.521 129.985 279.342C129.794 279.161 129.699 278.943 129.699 278.69C129.699 278.44 129.794 278.226 129.985 278.047C130.178 277.865 130.409 277.774 130.679 277.774C130.949 277.774 131.179 277.865 131.37 278.047C131.563 278.226 131.659 278.44 131.659 278.69C131.659 278.943 131.563 279.161 131.37 279.342C131.179 279.521 130.949 279.611 130.679 279.611ZM133.071 287V278.273H134.886V281.554H134.942C135.021 281.378 135.136 281.199 135.287 281.017C135.44 280.832 135.639 280.679 135.884 280.557C136.131 280.432 136.438 280.369 136.804 280.369C137.281 280.369 137.722 280.494 138.125 280.744C138.528 280.991 138.851 281.365 139.092 281.865C139.334 282.362 139.455 282.986 139.455 283.736C139.455 284.466 139.337 285.082 139.101 285.585C138.868 286.085 138.55 286.464 138.146 286.723C137.746 286.979 137.297 287.107 136.8 287.107C136.447 287.107 136.148 287.048 135.901 286.932C135.656 286.815 135.456 286.669 135.3 286.493C135.143 286.314 135.024 286.134 134.942 285.952H134.861V287H133.071ZM134.848 283.727C134.848 284.116 134.902 284.456 135.01 284.746C135.118 285.036 135.274 285.261 135.479 285.423C135.683 285.582 135.932 285.662 136.224 285.662C136.52 285.662 136.77 285.581 136.974 285.419C137.179 285.254 137.334 285.027 137.439 284.737C137.547 284.445 137.601 284.108 137.601 283.727C137.601 283.349 137.548 283.017 137.443 282.73C137.338 282.443 137.183 282.219 136.979 282.057C136.774 281.895 136.523 281.814 136.224 281.814C135.929 281.814 135.679 281.892 135.474 282.048C135.273 282.205 135.118 282.426 135.01 282.713C134.902 283 134.848 283.338 134.848 283.727ZM140.666 287V280.455H142.426V281.597H142.494C142.613 281.19 142.814 280.884 143.095 280.676C143.376 280.466 143.7 280.361 144.066 280.361C144.157 280.361 144.255 280.366 144.36 280.378C144.466 280.389 144.558 280.405 144.637 280.425V282.036C144.552 282.01 144.434 281.987 144.284 281.967C144.133 281.947 143.995 281.938 143.87 281.938C143.603 281.938 143.365 281.996 143.154 282.112C142.947 282.226 142.782 282.385 142.66 282.589C142.541 282.794 142.481 283.03 142.481 283.297V287H140.666ZM147.255 287.124C146.837 287.124 146.465 287.051 146.138 286.906C145.812 286.759 145.553 286.541 145.363 286.254C145.175 285.964 145.082 285.604 145.082 285.172C145.082 284.808 145.148 284.503 145.282 284.256C145.415 284.009 145.597 283.81 145.827 283.659C146.058 283.509 146.319 283.395 146.612 283.318C146.907 283.241 147.217 283.188 147.54 283.156C147.921 283.116 148.228 283.08 148.461 283.045C148.694 283.009 148.863 282.955 148.968 282.884C149.073 282.812 149.126 282.707 149.126 282.568V282.543C149.126 282.273 149.04 282.064 148.87 281.916C148.702 281.768 148.464 281.695 148.154 281.695C147.827 281.695 147.567 281.767 147.374 281.912C147.181 282.054 147.053 282.233 146.991 282.449L145.312 282.312C145.397 281.915 145.565 281.571 145.815 281.281C146.065 280.989 146.387 280.764 146.782 280.608C147.18 280.449 147.64 280.369 148.163 280.369C148.526 280.369 148.874 280.412 149.207 280.497C149.542 280.582 149.839 280.714 150.097 280.893C150.359 281.072 150.565 281.303 150.715 281.584C150.866 281.862 150.941 282.196 150.941 282.585V287H149.219V286.092H149.168C149.063 286.297 148.923 286.477 148.746 286.634C148.57 286.787 148.359 286.908 148.112 286.996C147.864 287.081 147.579 287.124 147.255 287.124ZM147.775 285.871C148.042 285.871 148.278 285.818 148.482 285.713C148.687 285.605 148.847 285.46 148.964 285.278C149.08 285.097 149.138 284.891 149.138 284.661V283.966C149.082 284.003 149.004 284.037 148.904 284.068C148.808 284.097 148.698 284.124 148.576 284.149C148.454 284.172 148.332 284.193 148.21 284.213C148.087 284.23 147.977 284.246 147.877 284.26C147.664 284.291 147.478 284.341 147.319 284.409C147.16 284.477 147.036 284.57 146.948 284.686C146.86 284.8 146.816 284.942 146.816 285.112C146.816 285.359 146.906 285.548 147.085 285.679C147.266 285.807 147.496 285.871 147.775 285.871ZM152.349 287V280.455H154.109V281.597H154.178C154.297 281.19 154.497 280.884 154.778 280.676C155.06 280.466 155.384 280.361 155.75 280.361C155.841 280.361 155.939 280.366 156.044 280.378C156.149 280.389 156.241 280.405 156.321 280.425V282.036C156.236 282.01 156.118 281.987 155.967 281.967C155.817 281.947 155.679 281.938 155.554 281.938C155.287 281.938 155.048 281.996 154.838 282.112C154.631 282.226 154.466 282.385 154.344 282.589C154.224 282.794 154.165 283.03 154.165 283.297V287H152.349ZM158.58 289.455C158.349 289.455 158.134 289.436 157.932 289.399C157.733 289.365 157.568 289.321 157.438 289.267L157.847 287.912C158.06 287.977 158.251 288.013 158.422 288.018C158.595 288.024 158.744 287.984 158.869 287.899C158.997 287.814 159.101 287.669 159.18 287.464L159.287 287.188L156.939 280.455H158.848L160.203 285.261H160.271L161.639 280.455H163.561L161.017 287.707C160.895 288.06 160.729 288.366 160.518 288.628C160.311 288.892 160.048 289.095 159.73 289.237C159.412 289.382 159.028 289.455 158.58 289.455Z" fill="white"/>
</svg>
